<svg width="187" height="92" viewBox="0 0 187 92" fill="none" xmlns="http://www.w3.org/2000/svg">
<path id="Ellipse 12" d="M174.786 10.2954C174.894 10.2731 174.999 10.2522 175.101 10.2328C174.833 11.4677 174.148 12.5115 172.808 13.6261C170.612 15.4513 166.717 17.3136 160.592 18.7824C157.886 19.4313 154.924 19.9634 151.737 20.3899C157.679 17.112 163.038 14.4446 167.659 12.5882C170.587 11.4117 172.952 10.6739 174.786 10.2954ZM82.7406 39.6804C76.8444 43.4332 70.997 47.1127 65.2778 50.6099C52.5132 45.1841 40.7374 39.6912 31.1133 34.7194C36.4451 35.2239 42.2265 35.809 48.3647 36.4302C48.8223 36.4765 49.2818 36.523 49.7433 36.5697C60.1337 37.6208 71.356 38.7452 82.7406 39.6804ZM154.088 79.5336C146.75 78.268 138.458 76.2862 129.621 73.779C137.922 73.5281 145.71 73.6241 152.623 74.1605C162.05 74.8919 168.923 76.3835 173.133 78.338C174.862 79.1404 175.76 79.849 176.189 80.2863C175.887 80.3809 175.507 80.4819 175.037 80.5794C170.932 81.4306 163.921 81.2293 154.088 79.5336ZM175.171 7.86154C175.168 7.85214 175.167 7.84723 175.167 7.84713C175.167 7.84703 175.168 7.85173 175.171 7.86154Z" stroke="#CDDF5B" stroke-width="20"/>
</svg>
