<svg width="207" height="107" viewBox="0 0 207 107" fill="none" xmlns="http://www.w3.org/2000/svg">
<path d="M184.434 33.7967C190.456 31.7714 194.426 31.0674 196.725 31.0084C196.193 36.4928 191.966 43.4534 181.96 51.4593C171.59 59.7559 156.912 67.6113 140.417 74.4192C115.711 84.6156 88.5022 91.8361 68.3993 94.8586C71.8797 92.5454 75.747 90.0322 79.9126 87.3252C81.1591 86.5152 82.4323 85.6877 83.7299 84.8431C91.271 80.7803 98.9583 76.5644 106.602 72.3725C113.385 68.6528 120.133 64.9519 126.714 61.3934C149.339 49.1607 169.801 38.7192 184.434 33.7967ZM78.734 64.2178C76.9795 65.369 75.2242 66.5137 73.4803 67.6482C65.5341 71.9245 57.7923 76.003 50.4178 79.7042C40.1658 84.8496 30.8971 89.1241 23.0463 92.0934C20.4334 93.0816 18.0818 93.8838 15.9851 94.5173C16.6935 93.6932 17.4593 92.8312 18.2824 91.9327C29.0956 80.1288 47.6518 64.3428 67.8461 49.5869C88.0554 34.8199 109.119 21.6608 124.78 14.7663C131.035 12.0126 135.607 10.6373 138.562 10.1792C138.045 12.3035 136.87 14.9581 134.684 18.1914C131.576 22.7912 126.929 27.814 121.022 33.1298C109.197 43.7702 93.6072 54.4588 78.734 64.2178ZM5.37943 96.3942C5.38319 96.391 5.4436 96.3962 5.54938 96.4195C5.42857 96.409 5.37568 96.3974 5.37943 96.3942ZM141.339 10.0507C141.339 10.0511 141.325 10.0488 141.3 10.0423C141.327 10.0469 141.34 10.0502 141.339 10.0507ZM196.751 29.2789C196.75 29.2738 196.749 29.2711 196.749 29.271C196.749 29.271 196.75 29.2735 196.751 29.2789Z" stroke="#CDDF5B" stroke-width="20"/>
</svg>
